<svg width="24" height="24" viewBox="0 0 24 24" fill="none" xmlns="http://www.w3.org/2000/svg">
<mask id="mask0_41_2577" style="mask-type:alpha" maskUnits="userSpaceOnUse" x="0" y="0" width="24" height="24">
<rect width="24" height="24" fill="#D9D9D9"/>
</mask>
<g mask="url(#mask0_41_2577)">
<path d="M13.5499 10.4251C13.2048 10.7702 12.6452 10.7702 12.3001 10.4251L9.38753 7.51253C8.99503 7.12003 8.99785 6.48281 9.39381 6.09381C9.78483 5.70964 10.4124 5.71242 10.8 6.10003L12.925 8.225L17.8992 3.27268C18.2865 2.88711 18.9128 2.88781 19.2992 3.27423C19.6863 3.66125 19.6863 4.28875 19.2992 4.67577L13.5499 10.4251ZM14.846 22.2356C14.2938 22.4082 13.7035 22.4174 13.1461 22.2621L7 20.55V21C7 21.5523 6.55228 22 6 22H2C1.44772 22 1 21.5523 1 21V12C1 11.4477 1.44772 11 2 11H8.05246C8.64608 11 9.23495 11.1057 9.7915 11.3122L15.15 13.3C15.7 13.5 16.146 13.85 16.488 14.35C16.8293 14.85 17 15.4 17 16H19C19.8333 16 20.5417 16.275 21.125 16.825C21.7083 17.375 22 18.1 22 19C22 19.5949 21.6134 20.1208 21.0455 20.2983L14.846 22.2356ZM3 20H5V13H3V20ZM13.95 20.4L19.9 18.55C19.85 18.3667 19.7373 18.229 19.562 18.137C19.3873 18.0457 19.2 18 19 18H14.2C13.6833 18 13.2167 17.9667 12.8 17.9C12.3833 17.8333 11.9333 17.7167 11.45 17.55L10.6338 17.2661C10.126 17.0895 9.84797 16.5437 10.0037 16.0291C10.1664 15.4916 10.7388 15.1926 11.2728 15.3662L12.3 15.7C12.6 15.8 12.95 15.875 13.35 15.925C13.75 15.975 14.3 16 15 16C15 15.8167 14.946 15.6417 14.838 15.475C14.7293 15.3083 14.6 15.2 14.45 15.15L8.6 13H7V18.5L13.95 20.4Z" fill="#F79336"/>
</g>
</svg>
