<svg width="24" height="24" viewBox="0 0 24 24" fill="none" xmlns="http://www.w3.org/2000/svg">
<g clip-path="url(#clip0_748_8080)">
<path fill-rule="evenodd" clip-rule="evenodd" d="M11.9935 0.326538C5.377 0.326538 0.0117188 5.69063 0.0117188 12.3083C0.0117188 17.6019 3.44486 22.0932 8.20557 23.6776C8.80438 23.7885 9.02423 23.4176 9.02423 23.1012C9.02423 22.8154 9.01312 21.8716 9.00796 20.8704C5.67462 21.5952 4.97125 19.4567 4.97125 19.4567C4.42621 18.072 3.64089 17.7035 3.64089 17.7035C2.55378 16.9599 3.72283 16.9752 3.72283 16.9752C4.926 17.0597 5.55954 18.2101 5.55954 18.2101C6.62819 20.0416 8.36252 19.5121 9.04625 19.2059C9.15379 18.4317 9.4643 17.9029 9.80696 17.6037C7.14565 17.301 4.34803 16.2734 4.34803 11.6823C4.34803 10.3744 4.81609 9.30532 5.58256 8.46623C5.45815 8.16444 5.04803 6.94579 5.69863 5.29539C5.69863 5.29539 6.70478 4.97357 8.99446 6.52377C9.95022 6.25829 10.9752 6.12515 11.9935 6.12039C13.0117 6.12515 14.0375 6.25829 14.9951 6.52377C17.282 4.97357 18.2867 5.29539 18.2867 5.29539C18.9389 6.94579 18.5286 8.16444 18.4042 8.46623C19.1724 9.30532 19.6373 10.3744 19.6373 11.6823C19.6373 16.2845 16.8344 17.2976 14.1663 17.5942C14.5961 17.966 14.979 18.6952 14.979 19.8131C14.979 21.4162 14.9651 22.7065 14.9651 23.1012C14.9651 23.42 15.1808 23.7936 15.7881 23.676C20.5463 22.0898 23.975 17.6004 23.975 12.3083C23.975 5.69063 18.6105 0.326538 11.9935 0.326538Z" fill="#FAF9FB"/>
<path d="M4.5494 17.5296C4.52301 17.5893 4.42937 17.6071 4.34405 17.5663C4.25714 17.527 4.20833 17.4458 4.23651 17.3861C4.2623 17.325 4.35615 17.3079 4.44286 17.3488C4.52996 17.3879 4.57956 17.4698 4.5494 17.5296Z" fill="#FAF9FB"/>
<path d="M5.03474 18.0711C4.9776 18.1238 4.8659 18.0992 4.7901 18.0155C4.71173 17.932 4.69705 17.8203 4.75498 17.7665C4.81391 17.7137 4.92225 17.7385 5.00082 17.822C5.07919 17.9066 5.09447 18.0173 5.03474 18.0711Z" fill="#FAF9FB"/>
<path d="M5.50709 18.7609C5.43368 18.8121 5.31364 18.7643 5.23943 18.6577C5.16602 18.5512 5.16602 18.4232 5.24102 18.372C5.31542 18.3208 5.43367 18.367 5.50887 18.4726C5.58209 18.5809 5.58209 18.7087 5.50709 18.7609Z" fill="#FAF9FB"/>
<path d="M6.15523 19.4276C6.08956 19.5 5.94968 19.4805 5.8473 19.3817C5.74254 19.2851 5.71337 19.148 5.77924 19.0756C5.84571 19.003 5.98639 19.0234 6.08956 19.1214C6.19353 19.2178 6.22527 19.3559 6.15523 19.4276Z" fill="#FAF9FB"/>
<path d="M7.04807 19.8147C7.0191 19.9085 6.88438 19.9512 6.74867 19.9113C6.61315 19.8702 6.52446 19.7603 6.55184 19.6655C6.58001 19.571 6.71533 19.5266 6.85204 19.5692C6.98736 19.6101 7.07625 19.7192 7.04807 19.8147Z" fill="#FAF9FB"/>
<path d="M8.02855 19.8864C8.03193 19.9852 7.91685 20.0672 7.77439 20.069C7.63113 20.0721 7.51526 19.9922 7.51367 19.895C7.51367 19.7951 7.62617 19.714 7.76943 19.7116C7.91189 19.7088 8.02855 19.7882 8.02855 19.8864Z" fill="#FAF9FB"/>
<path d="M8.94054 19.7311C8.95761 19.8275 8.8586 19.9266 8.71713 19.9529C8.57804 19.9783 8.44927 19.9188 8.43161 19.8232C8.41435 19.7244 8.51515 19.6254 8.65403 19.5998C8.7957 19.5752 8.92249 19.6331 8.94054 19.7311Z" fill="#FAF9FB"/>
</g>
<defs>
<clipPath id="clip0_748_8080">
<rect width="24" height="24" fill="white"/>
</clipPath>
</defs>
</svg>
