<svg width="24" height="14" viewBox="0 0 24 14" fill="none" xmlns="http://www.w3.org/2000/svg">
<g clip-path="url(#clip0_748_8091)">
<path d="M13.5374 6.81529C13.5374 10.5792 10.5069 13.6303 6.76884 13.6303C3.03073 13.6303 0 10.5785 0 6.81529C0 3.05212 3.0305 0 6.76884 0C10.5072 0 13.5374 3.05143 13.5374 6.81529Z" fill="#FAF9FB"/>
<path d="M20.9632 6.81524C20.9632 10.3581 19.4479 13.2313 17.5788 13.2313C15.7096 13.2313 14.1943 10.3581 14.1943 6.81524C14.1943 3.27237 15.7094 0.39917 17.5785 0.39917C19.4477 0.39917 20.9629 3.27145 20.9629 6.81524" fill="#FAF9FB"/>
<path d="M23.9995 6.81529C23.9995 9.98883 23.4667 12.5631 22.8092 12.5631C22.1517 12.5631 21.6191 9.98952 21.6191 6.81529C21.6191 3.64106 22.152 1.0675 22.8092 1.0675C23.4665 1.0675 23.9995 3.64083 23.9995 6.81529Z" fill="#FAF9FB"/>
</g>
<defs>
<clipPath id="clip0_748_8091">
<rect width="24" height="13.6303" fill="white"/>
</clipPath>
</defs>
</svg>
