<svg width="24" height="20" viewBox="0 0 24 20" fill="none" xmlns="http://www.w3.org/2000/svg">
<path fill-rule="evenodd" clip-rule="evenodd" d="M1.64987 8.5623C8.09231 5.75543 12.3883 3.90497 14.5378 3.01092C20.675 0.458229 21.9503 0.0147985 22.7815 0.00015612C22.9643 -0.0030643 23.3731 0.0422426 23.6379 0.257092C23.8614 0.438506 23.9229 0.683571 23.9524 0.855572C23.9818 1.02757 24.0185 1.4194 23.9893 1.72555C23.6568 5.22 22.2177 13.7001 21.4856 17.6139C21.1758 19.27 20.5658 19.8253 19.9753 19.8796C18.6919 19.9977 17.7174 19.0315 16.4744 18.2167C14.5294 16.9417 13.4305 16.148 11.5425 14.9039C9.36064 13.466 10.7751 12.6758 12.0185 11.3842C12.344 11.0462 17.9985 5.90305 18.1079 5.43648C18.1216 5.37813 18.1343 5.16062 18.0051 5.04576C17.8759 4.93091 17.6851 4.97019 17.5475 5.00142C17.3524 5.0457 14.2452 7.09946 8.22584 11.1627C7.34386 11.7683 6.545 12.0634 5.82924 12.048C5.04018 12.0309 3.52233 11.6018 2.39397 11.235C1.00999 10.7851 -0.0899676 10.5473 0.00581423 9.78326C0.0557033 9.38531 0.603723 8.97832 1.64987 8.5623Z" fill="#FAF9FB"/>
</svg>
