<svg width="24" height="20" viewBox="0 0 24 20" fill="none" xmlns="http://www.w3.org/2000/svg">
<path d="M21.4789 4.96354C21.4935 5.17354 21.4935 5.38354 21.4935 5.59547C21.4935 12.0532 16.5773 19.501 7.58797 19.501V19.4971C4.93249 19.501 2.33216 18.7403 0.0966797 17.3061C0.482809 17.3526 0.870873 17.3758 1.25991 17.3768C3.46055 17.3787 5.59829 16.6403 7.32958 15.2806C5.23829 15.241 3.40442 13.8774 2.76378 11.8868C3.49636 12.0281 4.2512 11.999 4.97023 11.8026C2.69023 11.3419 1.04991 9.3387 1.04991 7.01225C1.04991 6.99096 1.04991 6.97064 1.04991 6.95031C1.72926 7.3287 2.48991 7.5387 3.26797 7.56193C1.12055 6.12677 0.458615 3.26999 1.75539 1.03644C4.23668 4.08967 7.89765 5.9458 11.8276 6.14225C11.4338 4.44483 11.9718 2.66612 13.2415 1.47289C15.2099 -0.377429 18.3057 -0.282591 20.156 1.68483C21.2505 1.46902 22.2996 1.06741 23.2596 0.498377C22.8947 1.62967 22.1312 2.59064 21.1112 3.20128C22.0799 3.08709 23.0264 2.82773 23.9176 2.43193C23.2615 3.41515 22.4351 4.2716 21.4789 4.96354Z" fill="#FAF9FB"/>
</svg>
