<svg xmlns="http://www.w3.org/2000/svg" fill="none" viewBox="5.81 5.25 243.19 34.92">
<g opacity="1">
<g opacity="1">
<path d="M44.8623 8.14214C41.9191 6.80021 38.7681 5.81311 35.4741 5.25182C35.4156 5.23892 35.3571 5.27118 35.3247 5.32279C34.9218 6.03892 34.4671 6.9744 34.1552 7.70988C30.6078 7.18085 27.0799 7.18085 23.6105 7.70988C23.2986 6.9615 22.8309 6.03892 22.4215 5.32279C22.3891 5.27118 22.3306 5.24537 22.2721 5.25182C18.9781 5.81311 15.8271 6.80021 12.8839 8.14214C12.8579 8.15504 12.8384 8.1744 12.8189 8.19375C6.84166 17.0647 5.20441 25.7163 6.00354 34.2647C6.01004 34.3034 6.02953 34.3485 6.06202 34.3744C10.0057 37.2518 13.8325 39.0002 17.5813 40.155C17.6397 40.1743 17.7047 40.1485 17.7437 40.1034C18.6338 38.8969 19.4199 37.6324 20.1021 36.2969C20.1411 36.2195 20.1021 36.1292 20.0241 36.0969C18.7702 35.626 17.5748 35.0453 16.4248 34.3937C16.3338 34.3421 16.3273 34.2131 16.4118 34.1485C16.6522 33.9679 16.8926 33.7808 17.1265 33.5937C17.1654 33.5614 17.2239 33.555 17.2759 33.5744C24.8255 37.0002 32.9987 37.0002 40.4573 33.5744C40.5093 33.5485 40.5678 33.555 40.6067 33.5937C40.8406 33.7808 41.081 33.9744 41.3214 34.1485C41.4059 34.2131 41.3994 34.3421 41.3084 34.3937C40.1585 35.0582 38.963 35.626 37.7091 36.0969C37.6246 36.1292 37.5921 36.2195 37.6311 36.3034C38.3263 37.6389 39.1124 38.9034 39.983 40.1098C40.022 40.1614 40.087 40.1808 40.1455 40.1614C43.9137 39.0066 47.734 37.2582 51.6842 34.3808C51.7167 34.355 51.7427 34.3163 51.7427 34.2776C52.7042 24.3937 50.1314 15.8131 44.9208 8.20666C44.9143 8.16795 44.8883 8.14859 44.8623 8.14214ZM21.2326 29.0647C18.9586 29.0647 17.0875 26.9937 17.0875 24.4453C17.0875 21.897 18.9261 19.826 21.2326 19.826C23.5585 19.826 25.4167 21.9163 25.3777 24.4453C25.3777 26.9873 23.539 29.0647 21.2326 29.0647ZM36.5591 29.0647C34.2851 29.0647 32.414 26.9937 32.414 24.4453C32.414 21.897 34.2526 19.826 36.5591 19.826C38.885 19.826 40.7432 21.9163 40.7042 24.4453C40.7042 26.9873 38.885 29.0647 36.5591 29.0647Z" fill="white"/>
</g>
<g opacity="1" clip-path="url(#clip0_0_84)">
<path d="M77.3129 5.88342H64.8863V19.3029L73.1577 26.4622V13.4385H77.5747C80.3818 13.4385 81.7669 14.7333 81.7669 16.8208V26.7869C81.7669 28.8733 80.4568 30.2768 77.5747 30.2768H64.8494V37.8684H77.276C83.9385 37.9039 90.1893 34.7023 90.1893 27.3623V16.6411C90.2262 9.1571 83.9754 5.88342 77.3129 5.88342ZM142.44 27.3623V16.3529C142.44 12.3953 149.851 11.4962 152.096 15.4538L158.946 12.791C156.251 7.10622 151.348 5.45111 147.268 5.45111C140.605 5.45111 134.018 9.1571 134.018 16.3529V27.3623C134.018 34.6302 140.605 38.2641 147.118 38.2641C151.31 38.2641 156.326 36.2853 159.095 31.1049L151.759 27.8667C149.963 32.2911 142.44 31.2124 142.44 27.3623ZM119.795 17.8639C117.213 17.3241 115.491 16.425 115.378 14.8774C115.528 11.1714 121.479 11.0273 124.96 14.5892L130.462 10.524C127.019 6.49534 123.126 5.4156 119.122 5.4156C113.021 5.4156 107.107 8.72583 107.107 14.986C107.107 21.0666 111.973 24.3403 117.325 25.1318C120.057 25.4921 123.089 26.5353 123.014 28.3335C122.789 31.7512 115.453 31.5716 112.122 27.686L106.807 32.4707C109.914 36.3208 114.143 38.2631 118.11 38.2631C124.211 38.2631 130.986 34.8808 131.247 28.6927C131.622 20.886 125.709 18.9071 119.795 17.8639ZM94.7172 37.8318H103.102V5.88342H94.7172V37.8318ZM236.087 5.88342H223.66V19.3029L231.931 26.4622V13.4385H236.349C239.156 13.4385 240.541 14.7333 240.541 16.8208V26.7869C240.541 28.8733 239.231 30.2768 236.349 30.2768H223.623V37.8684H236.087C242.749 37.9039 249 34.7023 249 27.3623V16.6411C249 9.1571 242.749 5.88342 236.087 5.88342ZM175.115 5.45111C168.228 5.45111 161.378 9.0485 161.378 16.425V27.3268C161.378 34.6302 168.266 38.3007 175.19 38.3007C182.077 38.3007 188.927 34.6313 188.927 27.3268V16.425C188.927 9.08505 182.002 5.45111 175.115 5.45111ZM180.505 27.3268C180.505 29.6294 177.81 30.8167 175.153 30.8167C172.458 30.8167 169.764 29.7014 169.764 27.3268V16.425C169.764 14.0859 172.384 12.8276 175.004 12.8276C177.736 12.8276 180.506 13.9428 180.506 16.425V27.3268H180.505ZM219.019 16.425C218.832 8.94199 213.517 5.91893 206.668 5.91893H193.381V37.8673H201.877V27.7215H203.374L211.085 37.8673H221.565L212.507 26.8935C216.512 25.6717 219.019 22.3249 219.019 16.425ZM206.818 20.7429H201.877V13.4385H206.818C212.095 13.4385 212.095 20.7429 206.818 20.7429Z" fill="white"/>
</g>
</g>
<defs>
<clipPath id="clip0_0_84">
<rect width="184.151" height="32.884" fill="white" transform="translate(64.8494 5.4156)"/>
</clipPath>
</defs>
</svg>