<?xml version="1.0" encoding="UTF-8"?>
<svg xmlns="http://www.w3.org/2000/svg" xmlns:xlink="http://www.w3.org/1999/xlink" width="160px" height="44px" viewBox="0 0 160 44" version="1.1">
<g id="surface1">
<path style=" stroke:none;fill-rule:nonzero;fill:rgb(100%,100%,100%);fill-opacity:1;" d="M 98.105469 32.347656 L 98.054688 32.347656 C 98.078125 32.347656 98.078125 32.375 98.105469 32.375 L 98.132812 32.375 Z M 98.105469 32.375 C 97.894531 32.375 97.332031 32.480469 96.746094 32.480469 C 94.90625 32.480469 94.265625 31.625 94.265625 30.503906 L 94.265625 23.070312 L 98.027344 23.070312 C 98.238281 23.070312 98.398438 22.882812 98.398438 22.617188 L 98.398438 18.582031 C 98.398438 18.367188 98.214844 18.179688 98.027344 18.179688 L 94.265625 18.179688 L 94.265625 13.152344 C 94.265625 12.964844 94.132812 12.859375 93.921875 12.859375 L 88.800781 12.859375 C 88.585938 12.859375 88.480469 12.992188 88.480469 13.152344 L 88.480469 18.3125 C 88.480469 18.3125 85.894531 18.953125 85.734375 18.980469 C 85.546875 19.035156 85.441406 19.195312 85.441406 19.382812 L 85.441406 22.617188 C 85.441406 22.882812 85.625 23.070312 85.839844 23.070312 L 88.453125 23.070312 L 88.453125 30.878906 C 88.453125 36.679688 92.480469 37.265625 95.226562 37.265625 C 96.480469 37.265625 98 36.867188 98.238281 36.734375 C 98.375 36.679688 98.453125 36.519531 98.453125 36.359375 L 98.453125 32.804688 C 98.453125 32.589844 98.320312 32.429688 98.105469 32.375 Z M 154.265625 27.160156 C 154.265625 22.859375 152.535156 22.296875 150.71875 22.484375 C 149.308594 22.5625 148.160156 23.285156 148.160156 23.285156 L 148.160156 31.652344 C 148.160156 31.652344 149.308594 32.457031 151.039062 32.507812 C 153.464844 32.5625 154.265625 31.679688 154.265625 27.160156 Z M 160.027344 26.789062 C 160.027344 34.941406 157.386719 37.265625 152.800781 37.265625 C 148.90625 37.265625 146.828125 35.289062 146.828125 35.289062 C 146.828125 35.289062 146.746094 36.386719 146.613281 36.519531 C 146.535156 36.652344 146.425781 36.707031 146.265625 36.707031 L 142.773438 36.707031 C 142.535156 36.707031 142.320312 36.519531 142.320312 36.304688 L 142.375 9.917969 C 142.375 9.703125 142.558594 9.515625 142.773438 9.515625 L 147.8125 9.515625 C 148.027344 9.515625 148.214844 9.703125 148.214844 9.917969 L 148.214844 18.875 C 148.214844 18.875 150.160156 17.617188 153.011719 17.617188 L 152.988281 17.5625 C 155.8125 17.5625 160.027344 18.632812 160.027344 26.789062 Z M 139.359375 18.207031 L 134.375 18.207031 C 134.105469 18.207031 133.972656 18.394531 133.972656 18.660156 L 133.972656 31.574219 C 133.972656 31.574219 132.667969 32.480469 130.878906 32.480469 C 129.121094 32.480469 128.585938 31.679688 128.585938 29.890625 L 128.585938 18.605469 C 128.585938 18.394531 128.398438 18.207031 128.1875 18.207031 L 123.121094 18.207031 C 122.90625 18.207031 122.71875 18.394531 122.71875 18.605469 L 122.71875 30.769531 C 122.71875 35.984375 125.625 37.292969 129.625 37.292969 C 132.933594 37.292969 135.601562 35.476562 135.601562 35.476562 C 135.601562 35.476562 135.734375 36.410156 135.785156 36.546875 C 135.839844 36.652344 136 36.757812 136.160156 36.757812 L 139.332031 36.757812 C 139.601562 36.757812 139.734375 36.574219 139.734375 36.359375 L 139.785156 18.605469 C 139.8125 18.394531 139.601562 18.207031 139.359375 18.207031 Z M 83.199219 18.179688 L 78.160156 18.179688 C 77.945312 18.179688 77.761719 18.394531 77.761719 18.660156 L 77.761719 36.089844 C 77.761719 36.574219 78.078125 36.734375 78.480469 36.734375 L 83.039062 36.734375 C 83.519531 36.734375 83.625 36.519531 83.625 36.089844 L 83.625 18.582031 C 83.601562 18.367188 83.414062 18.179688 83.199219 18.179688 Z M 80.691406 10.132812 C 78.878906 10.132812 77.414062 11.574219 77.414062 13.421875 C 77.414062 15.238281 78.851562 16.707031 80.691406 16.707031 C 82.480469 16.707031 83.921875 15.265625 83.921875 13.421875 C 83.921875 11.601562 82.480469 10.132812 80.691406 10.132812 Z M 119.785156 9.542969 L 114.773438 9.542969 C 114.558594 9.542969 114.375 9.730469 114.375 9.945312 L 114.375 19.648438 L 106.535156 19.648438 L 106.535156 9.945312 C 106.535156 9.730469 106.347656 9.542969 106.132812 9.542969 L 101.09375 9.542969 C 100.878906 9.542969 100.691406 9.730469 100.691406 9.945312 L 100.691406 36.332031 C 100.691406 36.546875 100.90625 36.734375 101.09375 36.734375 L 106.132812 36.734375 C 106.347656 36.734375 106.535156 36.546875 106.535156 36.332031 L 106.535156 25.050781 L 114.375 25.050781 L 114.320312 36.332031 C 114.320312 36.546875 114.507812 36.734375 114.71875 36.734375 L 119.761719 36.734375 C 119.972656 36.734375 120.160156 36.546875 120.160156 36.332031 L 120.160156 9.945312 C 120.1875 9.730469 120 9.542969 119.785156 9.542969 Z M 75.066406 21.226562 L 75.066406 34.863281 C 75.066406 34.941406 75.039062 35.128906 74.933594 35.15625 C 74.933594 35.15625 71.972656 37.265625 67.09375 37.265625 C 61.199219 37.265625 54.1875 35.421875 54.1875 23.207031 C 54.1875 10.988281 60.292969 8.476562 66.265625 8.5 C 71.441406 8.5 73.519531 9.679688 73.839844 9.890625 C 73.921875 10.023438 73.972656 10.105469 73.972656 10.210938 L 73.011719 14.464844 C 73.011719 14.675781 72.800781 14.945312 72.535156 14.863281 C 71.679688 14.597656 70.398438 14.089844 67.386719 14.089844 C 63.894531 14.089844 60.160156 15.078125 60.160156 22.964844 C 60.160156 30.824219 63.707031 31.761719 66.265625 31.761719 C 68.453125 31.761719 69.226562 31.492188 69.226562 31.492188 L 69.226562 26.039062 L 65.734375 26.039062 C 65.464844 26.039062 65.28125 25.851562 65.28125 25.636719 L 65.28125 21.253906 C 65.28125 21.039062 65.464844 20.851562 65.734375 20.851562 L 74.613281 20.851562 C 74.878906 20.824219 75.066406 21.011719 75.066406 21.226562 Z M 75.066406 21.226562 "/>
<path style=" stroke:none;fill-rule:evenodd;fill:rgb(100%,100%,100%);fill-opacity:1;" d="M 20.320312 1.738281 C 9.09375 1.738281 0 10.855469 0 22.109375 C 0 31.117188 5.8125 38.738281 13.894531 41.4375 C 14.90625 41.597656 15.308594 41.011719 15.308594 40.476562 C 15.308594 39.996094 15.28125 38.390625 15.28125 36.679688 C 10.1875 37.613281 8.851562 35.421875 8.453125 34.300781 C 8.214844 33.710938 7.226562 31.894531 6.375 31.414062 C 5.652344 31.039062 4.640625 30.074219 6.347656 30.050781 C 7.945312 30.023438 9.09375 31.519531 9.464844 32.132812 C 11.308594 35.207031 14.214844 34.351562 15.386719 33.820312 C 15.574219 32.507812 16.105469 31.601562 16.691406 31.09375 C 12.1875 30.582031 7.441406 28.820312 7.441406 21.039062 C 7.441406 18.820312 8.238281 16.976562 9.519531 15.558594 C 9.308594 15.050781 8.613281 12.964844 9.734375 10.160156 C 9.734375 10.160156 11.441406 9.625 15.332031 12.246094 C 16.960938 11.789062 18.691406 11.550781 20.398438 11.550781 C 22.132812 11.550781 23.839844 11.789062 25.464844 12.246094 C 29.359375 9.597656 31.039062 10.160156 31.039062 10.160156 C 32.160156 12.964844 31.441406 15.050781 31.253906 15.558594 C 32.558594 16.976562 33.332031 18.792969 33.332031 21.039062 C 33.332031 28.847656 28.585938 30.582031 24.054688 31.09375 C 24.800781 31.734375 25.441406 32.9375 25.441406 34.863281 C 25.441406 37.589844 25.414062 39.78125 25.414062 40.449219 C 25.414062 40.984375 25.785156 41.625 26.800781 41.410156 C 35.066406 38.605469 40.640625 30.824219 40.640625 22.082031 C 40.640625 10.855469 31.546875 1.738281 20.320312 1.738281 Z M 20.320312 1.738281 "/>
</g>
</svg>
