<svg width="229" height="35" viewBox="0 0 229 35" fill="none" xmlns="http://www.w3.org/2000/svg">
<g opacity="1">
<path d="M34.2214 17.6474C34.2076 27.3236 26.605 35.0362 17.1204 35C7.6385 34.9638 -0.0220595 27.1762 1.70786e-05 17.5918C0.0220936 7.96011 7.77372 0.178004 17.3108 0.216942C26.6547 0.255881 34.2352 8.06858 34.2214 17.6474Z" fill="white"/>
<path d="M96.3117 33.8736C99.0409 33.1449 99.005 31.0589 98.9912 28.8616C98.9416 21.7721 98.9719 14.6797 98.9719 7.59019C98.9719 7.13962 98.9719 6.68904 98.9719 6.23569C98.8919 6.21344 98.8119 6.18841 98.7291 6.16616C94.7939 15.4696 90.856 24.7731 86.9209 34.0766C86.736 34.0794 86.5539 34.0822 86.369 34.0849C82.5635 25.0624 78.7581 16.0426 74.9499 7.02002C74.8864 7.0228 74.8229 7.02836 74.7567 7.03114C74.7374 7.45669 74.7015 7.88222 74.7015 8.31055C74.6988 15.122 74.7098 21.9362 74.6933 28.7476C74.6877 30.9198 74.3869 33.2033 77.3342 33.8902C75.0299 33.8902 72.7257 33.8902 70.0737 33.8902C70.587 33.5926 70.7857 33.423 71.0147 33.3562C72.4138 32.9418 73.0072 31.9406 73.0099 30.5443C73.0182 21.9251 73.0071 13.303 73.0209 4.68372C73.0237 2.91481 71.964 2.06373 70.4821 1.37396C70.8602 1.34059 71.241 1.2794 71.6191 1.2794C74.1469 1.27105 76.6829 1.37396 79.2051 1.2349C80.527 1.16258 81.032 1.7105 81.4928 2.8258C84.1061 9.14772 86.7884 15.439 89.4487 21.7387C89.537 21.9445 89.6391 22.1448 89.8626 22.6148C90.8616 20.2591 91.775 18.1147 92.6856 15.9675C94.598 11.4562 96.5325 6.95605 98.3952 2.42251C98.7456 1.56587 99.1458 1.22655 100.092 1.2488C102.871 1.31833 105.65 1.27383 108.487 1.56031C108.274 1.67434 108.07 1.82175 107.844 1.89685C106.459 2.34742 105.915 3.36538 105.915 4.75881C105.915 13.3336 105.923 21.9056 105.909 30.4804C105.907 32.3105 106.953 33.2311 108.528 33.8736C104.455 33.8736 100.382 33.8736 96.3117 33.8736Z" fill="white"/>
<path d="M191.188 12.0013C194.34 11.0919 197.488 10.1824 200.781 9.23394C200.781 10.4355 200.781 11.4423 200.781 12.4491C202.439 10.1184 204.633 9.0476 207.398 9.18944C210.16 9.33407 212.249 10.5189 213.265 13.5033C214.344 11.3728 215.776 9.96543 217.895 9.4342C222.777 8.2132 226.378 11.0335 226.442 16.1844C226.494 20.5872 226.508 24.9901 226.431 29.3901C226.395 31.4316 226.596 33.1671 228.997 33.8235C225.901 33.8235 222.805 33.8235 219.507 33.8235C219.507 33.3813 219.507 32.889 219.507 32.3967C219.507 27.2985 219.515 22.2004 219.499 17.105C219.496 16.3207 219.446 15.5253 219.303 14.7576C218.991 13.0944 217.719 12.2016 216.102 12.4269C214.537 12.6438 213.535 13.8871 213.544 15.4891C213.571 20.2618 213.593 25.0346 213.566 29.8073C213.555 31.5039 213.635 33.0753 215.566 33.8624C212.638 33.8624 209.711 33.8624 206.631 33.8624C206.631 32.8445 206.631 31.8821 206.631 30.9198C206.631 26.1916 206.645 21.4661 206.617 16.7379C206.612 15.9619 206.523 15.1609 206.314 14.4155C205.889 12.9136 204.636 12.1794 203.135 12.4325C201.722 12.6689 200.805 13.7424 200.803 15.2304C200.794 20.234 200.825 25.2404 200.783 30.244C200.77 31.7904 200.91 33.1449 202.654 33.8291C199.737 33.8291 196.821 33.8291 193.735 33.8291C193.735 33.2672 193.735 32.7221 193.735 32.177C193.735 26.8953 193.73 21.6108 193.738 16.3291C193.741 14.4378 193.843 12.502 190.888 12.4992C190.987 12.3379 191.089 12.171 191.188 12.0013Z" fill="white"/>
<path d="M53.4804 17.564C53.3231 21.341 52.8181 25.0068 51.1514 28.3805C50.4311 29.8434 49.4432 31.2452 48.3118 32.4162C46.2421 34.555 43.3501 34.4604 41.1479 32.4412C38.8713 30.3552 37.7399 27.6351 37.0527 24.7258C35.5626 18.4262 35.7833 12.2239 38.6119 6.30244C39.2135 5.03973 40.1324 3.86602 41.1259 2.87309C43.2866 0.706449 46.1648 0.775982 48.4056 2.84806C50.7071 4.97854 51.8385 7.75985 52.498 10.7164C52.9975 12.9609 53.1659 15.2777 53.4804 17.564Z" fill="white"/>
<path d="M141.444 3.15957C144.921 2.1277 148.399 1.09305 152.08 0C152.116 0.725922 152.163 1.25715 152.163 1.7856C152.168 10.7247 152.165 19.6639 152.165 28.6002C152.165 32.0184 152.165 32.0184 154.803 33.8736C151.514 33.8736 148.396 33.8736 145.167 33.8736C145.167 32.9112 145.167 32.0018 145.167 30.7974C144.811 31.1813 144.629 31.337 144.491 31.5261C141.411 35.8038 135.31 35.7204 132.335 31.3593C128.692 26.0219 129.261 17.169 133.632 12.4686C135.892 10.0377 139.885 8.07971 145.048 9.92928C145.048 8.34393 145.153 6.8003 145.013 5.27893C144.916 4.2415 144.033 3.77424 143.039 3.64352C142.543 3.57676 142.043 3.5573 141.544 3.51836C141.511 3.39598 141.478 3.27916 141.444 3.15957ZM145.131 20.832C145.131 18.2871 145.139 15.7422 145.128 13.1973C145.123 11.6314 144.392 10.8221 142.855 10.6274C141.295 10.4299 139.733 11.3255 138.991 13.1695C136.99 18.1341 136.913 23.16 138.944 28.1385C139.259 28.9117 139.905 29.6098 140.545 30.1689C141.491 30.9949 142.653 31.0172 143.785 30.5221C144.913 30.0298 145.181 29.0897 145.151 27.9104C145.087 25.5547 145.131 23.1933 145.131 20.832Z" fill="white"/>
<path d="M166.09 11.9986C169.242 11.0891 172.39 10.1796 175.691 9.22839C175.691 13.278 175.688 17.119 175.691 20.96C175.693 23.2295 175.624 25.5046 175.732 27.7686C175.853 30.3719 177.628 31.6152 179.946 30.8058C181.119 30.3969 181.847 29.6543 181.831 28.2442C181.781 24.0277 181.825 19.8113 181.806 15.5948C181.798 13.4198 181.613 13.1639 179.319 12.146C182.65 11.1225 185.65 10.2018 188.884 9.2117C188.884 9.93206 188.884 10.4188 188.884 10.9083C188.884 17.0244 188.901 23.1405 188.873 29.2566C188.865 31.2564 188.834 33.2033 191.702 33.5037C191.602 33.6149 191.503 33.7234 191.404 33.8346C188.26 33.8346 185.117 33.8346 181.828 33.8346C181.828 32.9168 181.828 32.0184 181.828 30.8447C181.166 31.6235 180.743 32.2131 180.23 32.7082C177.945 34.9193 175.263 35.203 172.44 34.0683C169.879 33.0392 168.817 30.8475 168.756 28.2192C168.662 24.2836 168.772 20.3425 168.709 16.4042C168.654 13.0583 168.532 13.2474 166.09 11.9986Z" fill="white"/>
<path d="M128.795 19.8224C123.883 19.8224 119.12 19.8224 114.39 19.8224C113.617 22.9931 115.485 26.9008 118.424 28.4667C121.923 30.3302 124.167 29.4958 128.375 24.6257C128.375 25.1013 128.416 25.3906 128.37 25.6631C127.362 31.5651 123.353 35.0556 117.834 34.6301C113.581 34.3047 110.777 31.8098 109.381 27.8826C107.8 23.4437 107.899 18.9797 110.016 14.6659C112.008 10.6079 116.164 8.6026 121.002 9.38136C125.058 10.0378 127.87 13.0666 128.524 17.4972C128.629 18.2231 128.692 18.9491 128.795 19.8224ZM123.063 18.4735C122.591 16.3013 122.434 14.2375 121.68 12.4241C120.753 10.1935 118.016 9.96544 116.465 11.8456C114.911 13.7258 114.472 16.0092 114.445 18.4735C117.226 18.4735 119.873 18.4735 123.063 18.4735Z" fill="white"/>
<path d="M154.279 12.0486C157.422 11.1336 160.565 10.2185 163.899 9.24785C163.929 9.89868 163.973 10.3826 163.973 10.8666C163.979 17.03 163.993 23.1906 163.968 29.3539C163.96 31.3287 164.065 33.1782 166.763 33.5037C166.678 33.6121 166.595 33.7178 166.51 33.8263C163.372 33.8263 160.232 33.8263 156.945 33.8263C156.945 33.0892 156.945 32.3605 156.945 31.6291C156.945 26.5782 156.928 21.5273 156.953 16.4793C156.964 14.4878 157.03 12.5187 154.05 12.4408C154.127 12.3101 154.205 12.1793 154.279 12.0486Z" fill="white"/>
<path d="M61.5108 17.5389C61.2459 21.8305 61.1244 26.0887 59.7778 30.1828C59.5294 30.9365 58.834 31.5428 58.3456 32.2187C57.8047 31.5484 56.9134 30.9421 56.7837 30.1995C56.1517 26.5698 55.517 22.918 55.2797 19.2494C54.9927 14.8133 55.3763 10.3715 56.4387 6.02988C56.6346 5.23164 56.9244 4.42784 57.3245 3.71583C57.8847 2.71456 58.6795 2.68952 59.1845 3.70748C59.7088 4.76716 60.1834 5.92419 60.3435 7.08399C60.8181 10.5578 61.1327 14.054 61.5108 17.5389Z" fill="white"/>
<path d="M164.103 4.16363C164.087 6.35808 162.436 8.01852 160.262 8.02965C158.046 8.03799 156.332 6.3108 156.349 4.08297C156.365 1.87739 158.131 0.166886 160.342 0.214168C162.492 0.26145 164.12 1.97196 164.103 4.16363Z" fill="white"/>
</g>
</svg>
