<svg width="228" height="39" viewBox="0 0 228 39" fill="none" xmlns="http://www.w3.org/2000/svg">
<g opacity="1" clip-path="url(#clip0_2_427)">
<path fill-rule="evenodd" clip-rule="evenodd" d="M2.73879 14.6636C13.4742 9.88061 20.6209 6.70245 24.2095 5.16057C34.4235 0.786673 36.5705 0.0314669 37.9508 0C38.2575 0 38.9323 0.0629338 39.3924 0.440537C39.7605 0.755206 39.8525 1.16428 39.9138 1.47894C39.9752 1.79361 40.0365 2.45442 39.9752 2.95789C39.4231 8.9366 37.0306 23.4428 35.8037 30.1138C35.2823 32.9459 34.2701 33.8899 33.2886 33.9843C31.1415 34.1731 29.5159 32.5368 27.4608 31.1522C24.2095 28.981 22.3999 27.628 19.2406 25.4882C15.5906 23.0338 17.9523 21.6807 20.0381 19.478C20.5902 18.9116 30.0066 10.1009 30.1907 9.31421C30.2213 9.21981 30.2213 8.8422 30.0066 8.6534C29.7919 8.4646 29.4852 8.52753 29.2398 8.59047C28.9024 8.6534 23.7494 12.1777 13.7195 19.1319C12.2473 20.1703 10.9283 20.6738 9.73212 20.6423C8.4132 20.6108 5.89806 19.8871 3.99636 19.2578C1.69592 18.5025 -0.144425 18.0935 0.00893709 16.7719C0.100955 16.0796 1.02113 15.3873 2.73879 14.6636Z" fill="white"/>
</g>
<g opacity="1">
<path d="M140.185 38.7574C138.992 38.5346 137.858 38.2062 136.7 37.866C136.688 36.6579 136.794 35.4028 137.031 34.265C147.427 37.2443 149.826 35.2972 150.003 28.6936V27.1102L148.656 28.3301C146.907 29.9135 145.206 30.4765 142.654 30.3122C137.598 29.9956 134.798 26.3126 134.786 20.0022C134.786 16.2253 135.625 13.8208 137.74 11.5805C140.563 8.57784 145.395 8.00311 148.774 10.2669L150.003 11.0879V10.2317V9.37543L152.177 9.4458L154.35 9.51617L154.421 18.0317C154.528 31.3093 154.138 33.9133 151.645 36.4351C148.302 39.2384 144.875 39.2266 140.185 38.7574ZM146.766 25.6792C147.345 25.386 148.313 24.694 148.916 24.1427L150.015 23.1457V19.0052V14.8648L149.235 14.2079C146.565 11.9793 143.706 11.8152 141.532 13.7505C140.126 15.0056 139.512 16.8236 139.488 19.7559C139.465 23.2864 140.232 25.0693 142.146 25.9725C143.422 26.5589 145.265 26.4416 146.766 25.6792ZM83.8313 28.4825C81.2912 26.078 80.098 22.3012 80.606 18.3015C81.0195 15.0525 82.0119 12.9294 83.9849 11.1348C85.5444 9.70385 87.0093 9.10567 89.3131 8.95319C94.9367 8.56612 98.2683 12.3781 98.2801 19.1929V20.9875C93.9915 21.1048 89.0886 20.7177 85.0954 21.3159C85.6743 24.9872 88.3443 27.7202 92.054 27.7788C94.2869 27.7788 95.8936 27.2157 98.032 26.7934L98.1029 30.1715C98.1029 30.1715 93.0937 31.3561 91.1916 31.3327C88.2616 31.3561 85.4853 30.0308 83.8313 28.4825ZM93.7907 16.8587C93.7907 14.7592 92.4084 12.7769 90.7308 12.472C88.0726 11.9794 86.0406 13.5042 85.379 16.4951L85.1427 17.5391H89.4667H93.7907V16.8587ZM116.403 28.4825C113.863 26.078 112.67 22.3012 113.178 18.3015C113.591 15.0525 114.584 12.9294 116.557 11.1348C118.116 9.70385 119.581 9.10567 121.885 8.95319C127.509 8.56612 130.84 12.3781 130.852 19.1929V20.9875C126.268 20.9288 121.885 20.9523 117.549 20.9171C117.809 25.2452 120.621 28.0017 124.626 27.7788C126.871 27.8257 128.855 27.2157 130.604 26.7934C130.994 27.028 130.899 29.7728 130.486 30.1129C129.919 30.5821 125.654 31.3562 123.752 31.3444C120.845 31.3562 118.057 30.0308 116.403 28.4825ZM126.374 16.8587C126.374 14.7592 124.992 12.7769 123.314 12.472C120.656 11.9794 118.624 13.5042 117.963 16.4951L117.726 17.5391H122.05H126.374V16.8587ZM178.546 31.0279C175.439 29.8784 173.903 26.5472 174.919 23.1691C175.333 21.8203 176.88 20.1547 178.463 19.3923C179.952 18.6651 182.976 18.0551 185.138 18.0434L186.568 18.0317V16.2958C186.485 11.5923 182.74 11.8973 179.042 13.2344C178.05 13.5863 176.75 13.8795 176.514 13.9616C176.478 12.8591 176.372 12.0966 176.372 10.4076L178.428 9.76252C179.798 9.32853 181.311 9.07051 182.976 8.97667C186.97 8.75381 189.12 9.62176 190.384 11.9559C190.904 12.9177 190.939 13.3634 191.057 19.9318C191.187 26.8756 191.187 26.8873 191.79 27.5207C192.156 27.9077 193.467 28.2714 193.881 28.2714C193.869 29.7258 194.034 29.6672 193.857 31.0161C193.278 31.1686 191.353 31.368 190.632 31.3094C189.226 31.1921 188.352 30.6055 187.678 29.327L187.324 28.6468L186.402 29.3857C184.24 31.063 180.684 31.8137 178.546 31.0279ZM183.768 27.3096C184.311 27.1219 185.174 26.6996 185.658 26.3829L186.556 25.8082V23.2747V20.7411H185.493C182.988 20.7411 179.999 22.0197 179.385 23.3568C178.711 24.823 179.278 26.5706 180.637 27.2392C181.665 27.7435 182.48 27.7553 183.768 27.3096ZM64.196 18.0317V5.18812H59.1041H54.0004V3.46387V1.7397H66.5589H79.1174V3.46387V5.18812H74.0137H68.9099V18.0317V30.8754H66.5471H64.1842V18.0317H64.196ZM103.738 15.4395V0.00370789H105.971H108.204V15.4395V30.8754H105.971H103.738V15.4395ZM160.706 20.1313V9.37543C162.16 9.42234 163.66 9.35199 165.113 9.39891C165.101 10.2903 165.149 11.1701 165.208 12.0615C167.252 9.83292 169.414 9.25819 171.221 9.07053L172.887 8.89456V11.0058V13.1171C170.087 12.296 167.169 14.1376 165.834 15.9204C165.326 16.6242 165.29 16.9878 165.172 23.697L165.042 30.7346C163.589 30.7815 162.136 30.8285 160.695 30.8754L160.706 20.1313ZM197.756 20.1313V9.38717C199.245 9.38717 200.745 9.38717 202.234 9.38717C202.234 10.3724 202.234 12.0849 202.234 13.0702C204.124 10.9589 206.404 8.97663 208.944 9.01182C212.051 8.89453 213.327 10.8886 214.709 13.0937C218.596 8.75382 225.685 7.49873 227.87 12.6714C228.083 19.7324 227.953 22.3481 227.847 30.8519C226.405 30.8988 225.082 30.8285 223.629 30.8754C223.7 25.386 223.617 19.1812 223.475 14.0203C222.92 12.9412 221.892 12.0967 220.12 12.5541C218.348 13.0233 216.753 14.3839 215.076 16.3192C215.076 21.1048 215.135 26.0663 215.135 30.8519H212.902H210.669C210.622 25.2453 210.574 19.6269 210.527 14.0203C209.629 12.9881 208.92 12.3899 207.231 12.7887C205.542 13.1875 203.297 14.5129 202.198 16.6125C202.198 21.3511 202.139 26.1015 202.139 30.8401C200.65 30.8401 199.209 30.8401 197.72 30.8401C197.756 27.2862 197.756 23.7087 197.756 20.1313Z" fill="white"/>
</g>
<defs>
<clipPath id="clip0_2_427">
<rect width="40" height="34" fill="white"/>
</clipPath>
</defs>
</svg>
