<svg xmlns="http://www.w3.org/2000/svg" fill="none" viewBox="8.29 4.5 234.61 36.54">
<g opacity="1">
<g opacity="1">
<path d="M8.29065 35.8111C12.937 36.2348 17.0416 35.0996 20.7744 32.2602C16.8882 31.9045 14.2998 29.9166 12.8425 26.2348C14.1341 26.3812 15.3353 26.4194 16.627 26.0585C14.5894 25.5502 12.9786 24.5408 11.7408 22.9572C10.5061 21.3776 9.89227 19.5754 9.8943 17.4917C11.0772 18.0948 12.2703 18.4907 13.5904 18.5217C9.86077 15.3306 8.99695 11.5323 11.0701 6.96998C15.7164 12.52 21.5294 15.5574 28.5924 16.04C28.5619 15.1811 28.4878 14.3635 28.5111 13.549C28.6138 9.99606 31.2926 6.62046 34.69 5.74511C37.8353 4.93472 40.5975 5.66263 42.9613 7.91853C43.1371 8.08658 43.2835 8.13298 43.5304 8.0773C45.2845 7.68242 46.9379 7.03184 48.6005 6.05751C47.9318 8.09999 46.7418 9.58467 45.0944 10.7405C46.6889 10.6002 48.1889 10.1239 49.7438 9.48879C48.6564 11.1116 47.445 12.4685 45.9745 13.5706C45.6026 13.849 45.506 14.1418 45.5152 14.5976C45.5965 18.5639 44.7306 22.3262 43.0365 25.8894C41.0019 30.1672 38.0487 33.6304 34.0528 36.14C31.2083 37.9267 28.1107 38.9908 24.7967 39.4351C21.8872 39.8259 18.9969 39.7321 16.128 39.1093C13.3953 38.5155 10.8465 37.4535 8.47459 35.9523C8.44207 35.9317 8.4126 35.9049 8.29065 35.8111Z" fill="white"/>
</g>
<g opacity="1">
<path d="M85.9952 24.3016C85.9952 22.6413 85.9757 20.981 85.9995 19.3207C86.0342 16.9343 87.8703 15.4084 90.6278 15.4431C92.8866 15.4713 94.5775 17.1857 94.623 19.3922C94.6859 22.4202 94.4453 25.4569 94.7596 28.4783C94.9872 30.6502 96.7865 32.2259 98.8437 32.1501C100.981 32.0699 102.72 30.3966 102.783 28.1771C102.863 25.3637 102.811 22.5459 102.824 19.7304C102.832 17.7991 103.821 16.2039 105.603 15.6425C108.794 14.639 111.569 16.5789 111.538 19.6133C111.51 22.2837 111.506 24.9562 111.536 27.6265C111.556 29.4992 112.265 30.9905 114.079 31.7924C116.557 32.887 119.496 31.1855 119.607 28.474C119.726 25.5913 119.668 22.6998 119.694 19.8127C119.709 18.0094 120.355 16.529 122.087 15.7964C125.042 14.5436 128.471 16.2429 128.378 19.6502C128.285 23.0748 128.59 26.5124 128.235 29.9284C127.621 35.837 122.488 40.5426 116.503 40.833C113.361 40.9847 110.465 40.3258 107.972 38.3491C107.311 37.8245 106.919 37.9633 106.299 38.4076C102.334 41.2535 97.9788 41.7065 93.5782 39.7948C89.3379 37.9524 86.6889 34.5993 86.1036 29.9241C85.8716 28.0774 86.0646 26.1765 86.0646 24.2994C86.0407 24.3016 86.019 24.3016 85.9952 24.3016Z" fill="white"/>
<path d="M57.118 18.3454C57.118 15.3131 57.1289 12.2786 57.1137 9.24633C57.1007 6.63234 59.1818 4.47353 61.7116 4.50387C64.4344 4.53855 66.5978 6.7949 66.4851 9.46308C66.4439 10.4363 66.4981 11.416 66.4114 12.3827C66.3269 13.332 66.6564 13.6377 67.6145 13.6268C71.5881 13.5791 75.5595 13.6008 79.5331 13.5965C80.6777 13.5965 81.7356 13.8219 82.6634 14.5718C84.1982 15.8095 84.8572 17.6562 84.2567 19.6221C83.6888 21.4883 82.2927 22.5092 80.4327 22.8993C80.0273 22.9838 79.5786 22.8343 79.1472 22.8321C75.3557 22.8256 71.5621 22.8386 67.7706 22.8191C66.8818 22.8148 66.3312 22.9687 66.4396 24.0741C66.5393 25.0733 66.4136 26.092 66.4331 27.1021C66.4829 29.7161 68.3472 31.5844 70.9681 31.6148C74.0746 31.6495 77.181 31.6126 80.2853 31.6625C82.3339 31.695 84.1592 33.4766 84.3825 35.4556C84.7271 38.5139 82.7978 40.5405 81.0722 40.6749C76.5784 41.0282 72.0087 41.375 67.5885 40.4646C61.2564 39.1598 57.1484 33.6912 57.118 27.2256C57.1072 24.267 57.118 21.3062 57.118 18.3454Z" fill="white"/>
<path d="M207.958 30.6913C205.718 30.6913 203.479 30.687 201.242 30.6978C200.902 30.7 200.431 30.5244 200.273 30.9536C200.104 31.4131 200.44 31.7859 200.772 32.0677C201.834 32.9737 203.143 33.21 204.47 33.4484C206.984 33.9014 209.124 32.8285 211.301 31.8813C212.217 31.4825 213.16 31.3177 214.149 31.4565C216.59 31.8011 217.604 33.9642 216.399 36.1426C215.226 38.258 213.286 39.3743 211.11 39.9899C207.084 41.1299 202.954 41.4811 198.968 39.9638C189.3 36.2835 188.621 25.2943 193.375 19.7087C195.319 17.4242 197.891 16.2255 200.795 15.8549C204.593 15.3716 208.357 15.4778 211.916 17.2074C215.74 19.065 218.5 23.3284 218.279 27.141C218.138 29.5599 217 30.6545 214.57 30.6697C212.367 30.6827 210.165 30.6718 207.96 30.6718C207.958 30.6783 207.958 30.6848 207.958 30.6913ZM204.52 24.7936C204.52 24.7871 204.52 24.7806 204.52 24.7741C205.675 24.7741 206.828 24.7849 207.984 24.7654C208.253 24.7611 208.61 24.8608 208.771 24.5552C208.957 24.1976 208.615 23.9613 208.456 23.699C208.35 23.5213 208.194 23.3479 208.018 23.2395C205.946 21.9499 203.804 21.9499 201.643 22.9794C201.268 23.1593 200.947 23.491 200.657 23.8031C200.468 24.0046 200.325 24.3038 200.483 24.5985C200.631 24.8738 200.919 24.7936 201.164 24.7936C202.282 24.7936 203.401 24.7936 204.52 24.7936Z" fill="white"/>
<path d="M166.6 15.9004C166.475 13.6376 166.683 11.262 166.819 8.88644C166.967 6.32664 168.87 4.56448 171.435 4.5233C173.856 4.48428 175.959 6.383 176.065 8.88644C176.171 11.4094 176.141 13.941 176.098 16.4661C176.082 17.3852 176.408 17.6322 177.288 17.6127C179.779 17.5564 182.272 17.5737 184.764 17.5802C187.186 17.5867 189.122 19.5115 189.206 21.9716C189.293 24.4577 187.552 26.5276 185.148 26.7379C183.022 26.9221 180.886 26.7357 178.76 26.8137C176.408 26.8982 176.223 26.5341 176.939 29.3193C177.277 30.635 178.593 31.5193 180.284 31.5952C181.797 31.6645 183.316 31.6299 184.834 31.6429C187.166 31.6645 188.935 33.379 189.204 35.876C189.432 37.9936 187.921 40.4364 185.861 40.6639C182.35 41.0519 178.786 41.2535 175.363 40.0072C171.829 38.7197 169.601 36.1729 168.473 32.6139C167.355 29.0787 166.96 25.4309 166.728 21.7526C166.611 19.8431 166.54 17.9335 166.6 15.9004Z" fill="white"/>
<path d="M157.103 17.5911C158.367 17.5911 159.633 17.5694 160.895 17.5954C163.247 17.6474 165.137 19.6133 165.187 22.0322C165.239 24.462 163.49 26.5926 161.164 26.7097C158.677 26.8354 156.182 26.8246 153.693 26.7964C152.809 26.7855 152.549 27.0933 152.609 27.9343C152.774 30.1647 154.179 31.5583 156.483 31.6342C157.89 31.6819 159.301 31.6407 160.708 31.6581C163.158 31.6884 164.894 33.3574 165.144 35.9107C165.365 38.1583 163.791 40.4472 161.539 40.7138C158.707 41.0476 155.82 41.1235 153.019 40.5014C148.508 39.5 145.605 36.6779 144.322 32.2281C143.238 28.4653 142.824 24.6072 142.618 20.7057C142.421 16.9863 142.664 13.2778 142.679 9.56487C142.687 7.19581 143.927 5.40764 145.987 4.76823C148.135 4.10064 150.117 4.89611 151.497 6.91837C151.892 7.49493 151.994 8.10616 151.996 8.76074C152.005 11.288 152.048 13.8175 151.989 16.3426C151.966 17.3657 152.33 17.6734 153.312 17.6171C154.571 17.5456 155.839 17.5997 157.103 17.5997C157.103 17.5976 157.103 17.5932 157.103 17.5911Z" fill="white"/>
<path d="M219.66 31.6364C219.753 29.9392 219.573 27.9191 219.811 25.899C220.42 20.7274 225.92 15.7097 231.132 15.6598C233.696 15.636 236.261 15.6577 238.825 15.6555C241.554 15.6533 243.642 18.7008 242.658 21.2476C241.914 23.168 240.585 24.0783 238.532 24.1152C236.404 24.1542 234.266 23.9678 232.146 24.2106C229.683 24.4923 228.281 26.1201 228.279 28.5802C228.277 31.179 228.274 33.78 228.274 36.3788C228.272 38.9863 226.495 40.8503 224.021 40.8395C221.368 40.8265 219.664 39.0903 219.662 36.394C219.657 34.9179 219.66 33.4375 219.66 31.6364Z" fill="white"/>
<path d="M140.099 28.8598C140.099 31.2744 140.114 33.6911 140.095 36.1057C140.073 38.9126 138.341 40.7615 135.699 40.833C132.878 40.9089 130.892 39.2052 130.836 36.3311C130.736 31.3589 130.76 26.3824 130.849 21.408C130.888 19.1798 132.325 17.5195 134.248 17.06C136.386 16.5485 138.311 17.3136 139.494 19.1387C139.919 19.7954 140.099 20.5085 140.095 21.2888C140.082 23.8117 140.091 26.3347 140.091 28.8598C140.093 28.8598 140.097 28.8598 140.099 28.8598Z" fill="white"/>
</g>
</g>
</svg>